HIERARCHY
ROOT Hips
{
	OFFSET -0.001795 -0.223333 0.028219
	CHANNELS 6 Xposition Yposition Zposition Zrotation Yrotation Xrotation 
	JOINT LeftUpLeg
	{
		OFFSET 0.069520 -0.091406 -0.006815
		CHANNELS 3 Zrotation Yrotation Xrotation
		JOINT LeftLeg
		{
			OFFSET 0.034277 -0.375199 -0.004496
			CHANNELS 3 Zrotation Yrotation Xrotation
			JOINT LeftFoot
			{
				OFFSET -0.013596 -0.397961 -0.043693
				CHANNELS 3 Zrotation Yrotation Xrotation
				JOINT LeftToe
				{
					OFFSET 0.026358 -0.055791 0.119288
					CHANNELS 3 Zrotation Yrotation Xrotation
					End Site
					{
						OFFSET 0.000000 0.000000 0.000000
					}
				}
			}
		}
	}
	JOINT RightUpLeg
	{
		OFFSET -0.067670 -0.090522 -0.004320
		CHANNELS 3 Zrotation Yrotation Xrotation
		JOINT RightLeg
		{
			OFFSET -0.038290 -0.382569 -0.008850
			CHANNELS 3 Zrotation Yrotation Xrotation
			JOINT RightFoot
			{
				OFFSET 0.015774 -0.398415 -0.042312
				CHANNELS 3 Zrotation Yrotation Xrotation
				JOINT RightToe
				{
					OFFSET -0.025372 -0.048144 0.123348
					CHANNELS 3 Zrotation Yrotation Xrotation
					End Site
					{
						OFFSET 0.000000 0.000000 0.000000
					}
				}
			}
		}
	}
	JOINT Spine
	{
		OFFSET -0.002533 0.108963 -0.026696
		CHANNELS 3 Zrotation Yrotation Xrotation
		JOINT Spine1
		{
			OFFSET 0.005487 0.135180 0.001092
			CHANNELS 3 Zrotation Yrotation Xrotation
			JOINT Spine2
			{
				OFFSET 0.001457 0.052922 0.025425
				CHANNELS 3 Zrotation Yrotation Xrotation
				JOINT Neck
				{
					OFFSET -0.002778 0.213870 -0.042857
					CHANNELS 3 Zrotation Yrotation Xrotation
					JOINT Head
					{
						OFFSET 0.005152 0.064970 0.051349
						CHANNELS 3 Zrotation Yrotation Xrotation
						End Site
						{
							OFFSET 0.000000 0.000000 0.000000
						}
					}
				}
				JOINT LeftShoulder
				{
					OFFSET 0.078845 0.121749 -0.034090
					CHANNELS 3 Zrotation Yrotation Xrotation
					JOINT LeftArm
					{
						OFFSET 0.090977 0.030469 -0.008868
						CHANNELS 3 Zrotation Yrotation Xrotation
						JOINT LeftForeArm
						{
							OFFSET 0.259612 -0.012772 -0.027456
							CHANNELS 3 Zrotation Yrotation Xrotation
							JOINT LeftHand
							{
								OFFSET 0.249234 0.008986 -0.001171
								CHANNELS 3 Zrotation Yrotation Xrotation
								End Site
								{
									OFFSET 0.000000 0.000000 0.000000
								}
							}
						}
					}
				}
				JOINT RightShoulder
				{
					OFFSET -0.081759 0.118833 -0.038615
					CHANNELS 3 Zrotation Yrotation Xrotation
					JOINT RightArm
					{
						OFFSET -0.096012 0.032551 -0.009143
						CHANNELS 3 Zrotation Yrotation Xrotation
						JOINT RightForeArm
						{
							OFFSET -0.253742 -0.013329 -0.021401
							CHANNELS 3 Zrotation Yrotation Xrotation
							JOINT RightHand
							{
								OFFSET -0.255298 0.007772 -0.005559
								CHANNELS 3 Zrotation Yrotation Xrotation
								End Site
								{
									OFFSET 0.000000 0.000000 0.000000
								}
							}
						}
					}
				}
			}
		}
	}
}
MOTION
Frames: 18
Frame Time: 0.050000
0.000000 0.965127 0.000000 -1.015005 -0.588984 3.787874 1.652309 -0.093240 -0.777255 -2.074384 0.272465 -2.894914 4.517145 11.983847 12.802657 0.000000 0.000000 0.000000 -1.300923 0.547291 -5.680300 1.703735 -0.129987 1.842223 -1.385586 -6.776775 8.824339 0.000000 0.000000 0.000000 7.365232 -0.716619 5.358054 -5.011907 1.872953 -20.004880 -2.292535 4.996367 26.744479 10.984994 -4.215140 -25.125925 0.000000 0.000000 0.000000 -16.615436 -15.889092 6.220517 -51.650818 -11.200850 -3.429615 -8.745475 -23.943484 2.776747 0.000000 0.000000 0.000000 25.849437 1.662026 1.076056 53.928512 15.701068 -1.008924 4.035769 25.870431 2.274441 0.000000 0.000000 0.000000 
-0.000287 0.964143 0.000248 -1.270039 -0.372649 4.513744 2.152075 -0.136630 -1.226323 -1.927046 0.267700 -3.415330 4.675839 12.187669 12.406916 0.000000 0.000000 0.000000 -0.956868 0.631898 -6.518987 1.572293 -0.101149 2.364989 -1.773782 -7.386392 8.280810 0.000000 0.000000 0.000000 7.857039 -0.635515 4.131502 -5.224489 1.939392 -19.617586 -2.690632 4.580522 26.984872 11.233197 -4.511610 -24.653086 0.000000 0.000000 0.000000 -15.810779 -16.265560 6.458108 -52.170173 -11.879234 -3.210816 -7.805067 -23.999703 2.597157 0.000000 0.000000 0.000000 25.493527 2.176768 1.283944 55.501703 15.384778 -1.034256 3.402064 27.482259 2.316267 0.000000 0.000000 0.000000 
-0.000542 0.964209 0.000369 -1.069731 0.166148 4.660084 2.607032 -0.204022 -2.096809 -2.934514 0.329534 -1.713674 4.742418 12.228932 11.707663 0.000000 0.000000 0.000000 -0.889366 0.660254 -6.817220 1.605718 -0.087614 3.169887 -2.354587 -8.360838 7.656231 0.000000 0.000000 0.000000 7.618016 -0.618523 4.047346 -4.783754 1.824922 -19.746378 -2.876102 4.204895 27.464500 10.359314 -4.142562 -23.921618 0.000000 0.000000 0.000000 -16.433349 -16.434887 6.610847 -51.712714 -12.711348 -2.886047 -7.565485 -24.031419 2.559965 0.000000 0.000000 0.000000 25.321943 2.010330 1.203541 54.941537 15.247257 -1.194676 3.775892 28.454603 2.524439 0.000000 0.000000 0.000000 
-0.000762 0.965199 0.001001 -1.089341 0.389320 4.936468 2.492703 -0.209390 -2.149332 -3.056948 0.339982 -1.812200 5.106212 12.827836 11.722701 0.000000 0.000000 0.000000 -0.951382 0.686116 -7.115931 1.981394 -0.139778 3.115633 -2.541674 -8.784250 7.872769 0.000000 0.000000 0.000000 7.910114 -0.604316 3.692477 -5.143975 1.916429 -20.170778 -2.922756 4.199543 28.063691 10.216754 -3.913129 -24.677250 0.000000 0.000000 0.000000 -16.123845 -17.167431 6.949065 -51.688438 -12.787215 -2.891455 -8.295930 -25.434559 2.880339 0.000000 0.000000 0.000000 25.457630 1.630636 1.016888 54.435947 14.916293 -1.432734 4.475787 29.327130 2.808753 0.000000 0.000000 0.000000 
-0.001107 0.965849 0.002126 -0.925706 0.843993 4.878292 2.688344 -0.215737 -2.206561 -3.701595 0.394021 -1.320471 4.939351 12.601846 11.726377 0.000000 0.000000 0.000000 -1.108363 0.680402 -7.117618 2.140688 -0.153834 3.646924 -2.762826 -9.167781 7.737950 0.000000 0.000000 0.000000 7.486533 -0.587625 3.757238 -4.585861 1.776206 -20.055170 -3.307765 3.575084 27.795314 9.812782 -3.732903 -24.506871 0.000000 0.000000 0.000000 -16.974475 -16.837973 6.905686 -51.375160 -12.940977 -2.788516 -8.312243 -26.879257 3.079928 0.000000 0.000000 0.000000 25.421554 1.619068 0.881129 54.038125 14.176198 -1.719134 5.430889 30.143750 3.119554 0.000000 0.000000 0.000000 
-0.001797 0.966639 0.004236 -0.838787 1.190425 4.816872 2.650954 -0.213520 -2.163796 -3.666252 0.387842 -1.198259 5.060590 12.833332 11.785961 0.000000 0.000000 0.000000 -1.317246 0.643546 -6.780952 2.399230 -0.192205 3.673474 -2.878287 -9.363234 7.684493 0.000000 0.000000 0.000000 7.394610 -0.603755 3.959685 -4.731085 1.817830 -20.355417 -3.202215 3.286317 27.810602 9.643488 -3.516063 -25.250829 0.000000 0.000000 0.000000 -17.532940 -16.942675 7.012146 -51.041793 -12.868334 -2.798501 -8.908846 -28.244302 3.403863 0.000000 0.000000 0.000000 25.220750 1.459754 0.755170 54.172919 13.562875 -1.976081 5.738875 30.445725 3.235241 0.000000 0.000000 0.000000 
-0.003082 0.966910 0.007226 -0.771704 1.586729 4.810206 2.578417 -0.191873 -1.834571 -3.657774 0.384487 -1.671190 5.169066 13.143211 12.480602 0.000000 0.000000 0.000000 -1.252661 0.602451 -6.305090 2.624617 -0.228935 3.556278 -3.258897 -10.165154 7.923974 0.000000 0.000000 0.000000 7.379066 -0.593109 3.854893 -4.806853 1.848518 -20.225762 -3.439412 2.987367 27.709057 9.721034 -3.556385 -25.318550 0.000000 0.000000 0.000000 -17.690950 -16.454971 6.772033 -50.938284 -12.716617 -2.853008 -8.866850 -29.144141 3.516694 0.000000 0.000000 0.000000 25.140951 0.897419 0.383660 54.613204 12.913361 -2.241818 6.079776 30.739994 3.376919 0.000000 0.000000 0.000000 
-0.005163 0.966797 0.010956 -0.714348 1.818119 4.862820 2.433474 -0.173875 -1.582555 -3.520126 0.371696 -2.088162 5.339794 13.399994 12.302189 0.000000 0.000000 0.000000 -1.102610 0.578981 -6.005164 2.742240 -0.247884 3.523847 -3.426976 -10.490863 7.922337 0.000000 0.000000 0.000000 7.213014 -0.592902 3.927776 -4.769351 1.831299 -20.739257 -3.537763 3.059151 28.040271 9.991430 -3.680639 -25.417148 0.000000 0.000000 0.000000 -17.741265 -16.400249 6.699894 -50.766105 -12.616341 -2.915418 -9.234497 -29.407911 3.640087 0.000000 0.000000 0.000000 25.226029 0.202667 0.028754 54.866596 12.397548 -2.524102 6.053769 30.042180 3.301681 0.000000 0.000000 0.000000 
-0.007989 0.966654 0.015096 -0.615753 1.964978 5.164472 2.456305 -0.154036 -1.258434 -3.481218 0.369623 -2.954248 5.626471 13.941894 12.931828 0.000000 0.000000 0.000000 -1.019134 0.561739 -5.789005 2.824169 -0.264302 3.210749 -3.273162 -10.198406 8.101027 0.000000 0.000000 0.000000 7.010375 -0.566055 3.719135 -4.871772 1.855857 -20.893793 -3.579527 2.867745 27.963396 10.017824 -3.619579 -25.917347 0.000000 0.000000 0.000000 -17.698410 -15.746176 6.378035 -50.618321 -12.207481 -3.078394 -8.936344 -29.146677 3.529509 0.000000 0.000000 0.000000 25.222377 -0.247241 -0.297202 55.206977 11.518099 -2.896715 5.628743 29.062525 3.059858 0.000000 0.000000 0.000000 
-0.011423 0.966203 0.019679 -0.488873 2.113031 5.529672 2.430747 -0.153299 -1.218113 -3.454062 0.367103 -3.385450 5.823255 14.246639 12.899687 0.000000 0.000000 0.000000 -0.785094 0.545639 -5.560416 2.693810 -0.251191 2.929836 -3.187056 -9.977555 7.938190 0.000000 0.000000 0.000000 6.838320 -0.556979 3.651391 -5.085699 1.889972 -21.767575 -3.636180 2.937431 28.406078 10.365858 -3.617561 -27.023872 0.000000 0.000000 0.000000 -17.684702 -15.203511 6.071913 -50.279953 -11.608073 -3.353247 -8.792747 -28.526504 3.405522 0.000000 0.000000 0.000000 25.355410 -0.791489 -0.577056 55.580454 10.730049 -3.313459 5.325089 28.166972 2.893906 0.000000 0.000000 0.000000 
-0.015208 0.965791 0.024967 -0.490660 2.071082 5.731842 2.337463 -0.139293 -1.030119 -3.123210 0.345563 -3.749362 5.964212 14.477622 13.052657 0.000000 0.000000 0.000000 -0.561755 0.543581 -5.495637 2.530131 -0.229783 2.844285 -2.923296 -9.350163 7.536563 0.000000 0.000000 0.000000 6.752102 -0.538975 3.484367 -5.145445 1.905025 -21.694895 -3.747752 3.012930 28.310598 10.485732 -3.625705 -27.289151 0.000000 0.000000 0.000000 -17.806665 -14.818887 5.859682 -49.965256 -10.699989 -3.690545 -8.242270 -27.157702 3.085991 0.000000 0.000000 0.000000 25.314381 -1.352010 -0.919395 55.920267 9.834727 -3.713571 5.056247 27.048144 2.695950 0.000000 0.000000 0.000000 
-0.019380 0.964859 0.031079 -0.552798 1.599594 6.015442 2.410688 -0.153926 -1.218733 -2.813727 0.322883 -3.290733 6.477025 15.160963 12.571665 0.000000 0.000000 0.000000 -0.079211 0.536309 -5.348902 2.249620 -0.190219 2.737151 -2.773932 -8.824978 6.462112 0.000000 0.000000 0.000000 6.819344 -0.521923 3.232659 -5.174046 1.896583 -21.933308 -3.686033 3.565915 28.529439 10.418858 -3.547611 -27.275883 0.000000 0.000000 0.000000 -17.404347 -14.339093 5.544151 -50.272451 -10.007600 -4.006279 -7.764321 -26.426197 2.878106 0.000000 0.000000 0.000000 25.067945 -2.125727 -1.312081 56.484606 8.794659 -4.223697 4.744906 27.073682 2.662677 0.000000 0.000000 0.000000 
-0.023873 0.963877 0.038087 -0.461074 1.490452 5.926762 2.334297 -0.132764 -0.948878 -2.469980 0.295653 -3.108134 6.459396 15.098618 12.348007 0.000000 0.000000 0.000000 0.347936 0.479029 -4.740259 1.869272 -0.141758 2.635042 -2.718036 -8.513652 5.654496 0.000000 0.000000 0.000000 6.919911 -0.505421 3.041108 -5.150868 1.902750 -21.430187 -3.840330 3.723480 28.347196 10.343414 -3.430996 -27.570652 0.000000 0.000000 0.000000 -17.277939 -13.861802 5.264418 -50.372852 -9.225574 -4.317971 -6.714501 -25.524576 2.532461 0.000000 0.000000 0.000000 24.798767 -2.401576 -1.448948 56.927332 7.567916 -4.781444 4.163057 27.184725 2.556491 0.000000 0.000000 0.000000 
-0.028683 0.962443 0.045502 -0.495476 0.723007 6.233409 2.729034 -0.166286 -1.342755 -2.739822 0.311846 -2.192061 7.371024 16.404556 11.896989 0.000000 0.000000 0.000000 0.766455 0.456269 -4.527344 1.639714 -0.101616 2.863330 -2.607972 -7.994884 4.459242 0.000000 0.000000 0.000000 6.902931 -0.462918 2.588967 -5.137536 1.879333 -21.598403 -3.590146 4.595399 28.478468 10.310642 -3.344500 -27.585795 0.000000 0.000000 0.000000 -17.091024 -13.442182 4.958776 -51.074164 -8.834964 -4.534019 -6.227347 -24.944198 2.358392 0.000000 0.000000 0.000000 25.190931 -3.132555 -1.808590 56.894791 7.055843 -5.063899 3.436162 27.345607 2.448127 0.000000 0.000000 0.000000 
-0.033651 0.960488 0.053089 -0.440784 -0.015372 6.549656 3.237573 -0.197182 -1.719319 -3.274709 0.358173 -1.240045 7.805809 16.964253 10.868757 0.000000 0.000000 0.000000 1.230121 0.443153 -4.434012 1.157560 -0.029773 3.047438 -2.474468 -7.378011 3.291062 0.000000 0.000000 0.000000 7.088097 -0.425259 2.083105 -5.119921 1.865007 -21.359693 -3.660171 5.156478 28.404403 10.206943 -3.252098 -27.623336 0.000000 0.000000 0.000000 -16.816788 -13.087755 4.756995 -51.092300 -8.381538 -4.717570 -5.850498 -25.424298 2.322006 0.000000 0.000000 0.000000 24.753364 -3.243784 -1.824964 58.116788 7.157869 -5.038615 2.006234 27.448440 2.171723 0.000000 0.000000 0.000000 
-0.038265 0.957848 0.060594 -0.621747 -1.048714 6.518282 4.019733 -0.278628 -3.136573 -4.338185 0.496966 3.568735 8.312868 17.590159 7.815242 0.000000 0.000000 0.000000 1.701774 0.381880 -3.943448 0.798217 0.039811 3.602604 -2.514226 -6.721165 0.994065 0.000000 0.000000 0.000000 7.390068 -0.472986 2.438682 -5.179213 1.850535 -21.770115 -3.548871 5.859379 28.469319 10.144008 -3.218390 -27.561581 0.000000 0.000000 0.000000 -16.534515 -12.834972 4.623886 -50.643803 -8.761060 -4.541692 -5.747874 -26.541746 2.402178 0.000000 0.000000 0.000000 24.716234 -3.664534 -2.079432 58.259065 6.964643 -5.150982 1.351903 28.605184 2.162771 0.000000 0.000000 0.000000 
-0.041783 0.955187 0.068791 -0.899261 -1.437212 6.440672 4.940387 -0.411152 -6.110628 -5.560790 0.811063 10.518347 8.824631 18.403551 5.903937 0.000000 0.000000 0.000000 2.059450 0.323766 -3.484532 0.899234 0.062320 4.616812 -2.589783 -6.102508 -1.133395 0.000000 0.000000 0.000000 7.893863 -0.552562 2.961304 -5.272540 1.865753 -21.900471 -3.413227 6.176999 28.384772 10.055159 -3.148076 -27.603045 0.000000 0.000000 0.000000 -15.018361 -13.483213 4.924515 -50.616102 -10.220527 -3.982188 -5.395411 -28.241674 2.478211 0.000000 0.000000 0.000000 24.198636 -3.926781 -2.196346 57.303234 9.159469 -4.076312 -1.318642 29.274274 1.611686 0.000000 0.000000 0.000000 
-0.043848 0.951903 0.078403 -0.785499 -1.945441 6.417119 5.640279 -0.575262 -11.055376 -7.442539 1.608354 19.688626 9.524370 19.629064 5.013018 0.000000 0.000000 0.000000 2.042426 0.244239 -2.833695 0.326945 0.183652 5.582443 -2.537806 -4.946268 -3.465917 0.000000 0.000000 0.000000 7.657865 -0.547911 3.053198 -4.544273 1.680612 -21.159422 -4.168968 6.442223 27.612898 9.597253 -3.145521 -25.868226 0.000000 0.000000 0.000000 -13.926599 -13.784547 5.033815 -48.056827 -11.431268 -3.301203 -2.556875 -31.090168 1.921154 0.000000 0.000000 0.000000 23.956986 -2.724325 -1.461867 53.319882 12.143303 -2.672716 -5.615453 30.669150 0.593745 0.000000 0.000000 0.000000 
